<svg xmlns="http://www.w3.org/2000/svg" xmlns:xlink="http://www.w3.org/1999/xlink" width="600" height="600" viewBox="-125 -125 250 250">
	<style>
	<![CDATA[
		.m, .w1, .w2, .w3, .w4, .w5, .w6{ stroke: #666 }
		.m .B{ stroke: #f60 }
		.w1 .B{ stroke: #00f }
		.w2 .B{ stroke: #f0f }
		.w3 .B{ stroke: #f00 }
		.w4 .B{ stroke: #0a0 }
		.w5 .B{ stroke: #8000ff }
		.w6 .B{ stroke: #008b8b }
		.m_,.w1_,.w2_,.w3_,.w4_,.w5_,.w6_{fill:#666;stroke-width:0}
		.w2_{transform:rotate(60deg)}
		.w3_{transform:rotate(120deg)}
		.w4_{transform:rotate(180deg)}
		.w5_{transform:rotate(240deg)}
		.w6_{transform:rotate(300deg)}
		.B { fill: #303646 }
		.F{ font-size: 10px; fill: #fff; stroke: none }
		.G circle { stroke-width: 1.2 }
		.G text { font-family: sans-serif }
		.m:hover, .m:hover ~ .m, .m:has(~ .m:hover){ stroke: #ff9c52 }
		.m_:hover, .m:hover ~ .m_, .m_:has(~ .m:hover){ fill: #ff9c52 }
		.m:hover .B, .m:hover ~ .m .B{ fill: #f60 }
		.w1:hover, .w1:hover ~ .w1, .w1:has(~ .w1:hover){ stroke: #3351ff }
		.w1_:hover, .w1:hover ~ .w1_, .w1_:has(~ .w1:hover){ fill: #3351ff }
		.w1:hover .B, .w1:hover ~ .w1 .B{ fill: #00f }
		.w2:hover, .w2:hover ~ .w2, .w2:has(~ .w2:hover){ stroke: #ff66ff }
		.w2_:hover, .w2:hover ~ .w2_, .w2_:has(~ .w2:hover){ fill: #ff66ff }
		.w2:hover .B, .w2:hover ~ .w2 .B{ fill: #f0f }
		.w3:hover, .w3:hover ~ .w3, .w3:has(~ .w3:hover){ stroke: #ff4c4c }
		.w3_:hover, .w3:hover ~ .w3_, .w3_:has(~ .w3:hover){ fill: #ff4c4c }
		.w3:hover .B, .w3:hover ~ .w3 .B{ fill: #f00 }
		.w4:hover, .w4:hover ~ .w4, .w4:has(~ .w4:hover){ stroke: #33d433 }
		.w4_:hover, .w4:hover ~ .w4_, .w4_:has(~ .w4:hover){ fill: #33d433 }
		.w4:hover .B, .w4:hover ~ .w4 .B{ fill: #0a0 }
		.w5:hover, .w5:hover ~ .w5, .w5:has(~ .w5:hover){ stroke: #b366ff }
		.w5_:hover, .w5:hover ~ .w5_, .w5_:has(~ .w5:hover){ fill: #b366ff }
		.w5:hover .B, .w5:hover ~ .w5 .B{ fill: #8000ff }
		.w6:hover, .w6:hover ~ .w6, .w6:has(~ .w6:hover){ stroke: #3aa6a6 }
		.w6_:hover, .w6:hover ~ .w6_, .w6_:has(~ .w6:hover){ fill: #3aa6a6 }
		.w6:hover .B, .w6:hover ~ .w6 .B{ fill: #008b8b }
		.m, .w1, .w2, .w3, .w4, .w5, .w6, .B, .F_m, .F_w1, .F_w2, .F_w3, .F_w4, .F_w5, .F_w6 { transition: stroke 0.1s ease, fill 0.2s ease; }
		.G path, .G .X {filter: url(#glow) }
		.F_m, .F_w1, .F_w2, .F_w3, .F_w4, .F_w5, .F_w6{ font-size: 4.8px; stroke-width: 0 }
		.m:hover .F_m, .m:hover ~ .m .F_m, .F_m:has(~ .m:hover){ fill: #ff9c52 }
		.w1:hover .F_w1, .w1:hover ~ .w1 .F_w1, .F_w1:has(~ .w1:hover){ fill: #3351ff }
		.w2:hover .F_w2, .w2:hover ~ .w2 .F_w2, .F_w2:has(~ .w2:hover){ fill: #ff66ff }
		.w3:hover .F_w3, .w3:hover ~ .w3 .F_w3, .F_w3:has(~ .w3:hover){ fill: #ff4c4c }
		.w4:hover .F_w4, .w4:hover ~ .w4 .F_w4, .F_w4:has(~ .w4:hover){ fill: #33d433 }
		.w5:hover .F_w5, .w5:hover ~ .w5 .F_w5, .F_w5:has(~ .w5:hover){ fill: #b366ff }
		.w6:hover .F_w6, .w6:hover ~ .w6 .F_w6, .F_w6:has(~ .w6:hover){ fill: #3aa6a6 }
	]]>
	</style>
	<defs>
		<radialGradient id="S" cx="0.5" cy="0.5" r=".8" fx="0.35" fy="0.25">
			<stop offset=".2" stop-opacity="0"/>
			<stop offset=".3" stop-opacity="0.1"/>
			<stop offset=".5" stop-opacity="0.3"/>
			<stop offset=".8" stop-opacity="1"/>
		</radialGradient>
		<filter id="glow" x="-50%" y="-50%" width="200%" height="200%">
			<feGaussianBlur in="SourceAlpha" stdDeviation="2" result="blur"/>
			<feMerge>
				<feMergeNode in="blur"/>
				<feMergeNode in="SourceGraphic"/>
			</feMerge>
		</filter>
		<filter id="shadow" x="-50%" y="-50%" width="200%" height="200%">
			<feGaussianBlur in="SourceAlpha" stdDeviation="3" result="blur"/>
			<feOffset in="blur" dx="2" dy="2" result="offsetBlur"/>
			<feMerge>
				<feMergeNode in="offsetBlur"/>
				<feMergeNode in="SourceGraphic"/>
			</feMerge>
		</filter>
	</defs>
	<circle r="112.6" cy="0" cx="0" fill="#151b23" stroke="#71706e" filter="url(#shadow)"/>
	<g class="G" fill="none" stroke-linecap="round">
		<g class="m w1 w2 w3 w4 w5 w6"><text class="F X" transform="translate(100 100) scale(2)">💡</text></g>
		<path class="w1" d="m 86.60254,-50 q 32.2,50 0,100"/>
		<path class="w2" d="M 86.60254,50 Q 59.40127,102.88602 0,100"/>
		<path class="w3" d="m 0,100 q -59.40127,2.88602 -86.60254,-50"/>
		<path class="w4" d="m -86.60254,50 q -32.2,-50 0,-100"/>
		<path class="w5" d="M -86.60254,-50 Q -59.40127,-102.88602 0,-100"/>
		<path class="w6" d="m 0,-100 q 59.40127,-2.88602 86.60254,50"/>
		<path class="w1" d="M 86.60254,-50 Q 50.15127,-86.86455 0,-100"/>
		<path class="w2" d="m 86.60254,50 q 13.7,-50 0,-100"/>
		<path class="w3" d="M 0,100 Q 50.15127,86.86455 86.60254,50"/>
		<path class="w4" d="M -86.60254,50 Q -50.15127,86.86455 0,100"/>
		<path class="w5" d="m -86.60254,-50 q -13.7,50 0,100"/>
		<path class="w6" d="m 0,-100 q -50.15127,13.13545 -86.60254,50"/>
		<path class="w1" d="M 86.60254,-50 Q 84.52408,48.8 0,100"/>
		<path class="w2" d="M 86.60254,50 Q 0,97.6 -86.60254,50"/>
		<path class="w3" d="M 0,100 Q -84.52408,48.8 -86.60254,-50"/>
		<path class="w4" d="M -86.60254,50 Q -84.52408,-48.8 0,-100"/>
		<path class="w5" d="M -86.60254,-50 Q 0,-97.6 86.60254,-50"/>
		<path class="w6" d="M 0,-100 Q 84.52408,-48.8 86.60254,50"/>
		<path class="w1" d="M 86.60254,-50 Q 0,-67.9 -86.60254,-50"/>
		<path class="w2" d="M 86.60254,50 Q 58.80312,-33.95 0,-100"/>
		<path class="w3" d="M 0,100 Q 58.80312,33.959 86.60254,-50"/>
		<path class="w4" d="M -86.60254,50 Q 0,67.9 86.60254,50"/>
		<path class="w5" d="M -86.60254,-50 Q -58.80312,33.95 0,100"/>
		<path class="w6" d="M 0,-100 Q -58.80312,-33.95 -86.60254,50"/>
		<path class="w1" d="M 86.60254,-50 Q 24.2,41.91563 -86.60254,50"/>
		<path class="w2" d="M 86.60254,50 Q -24.2,41.91563 -86.60254,-50"/>
		<path class="w3" d="M 0,100 Q -48.4,0 0,-100"/>
		<path class="w4" d="M -86.60254,50 Q -24.2,-41.91563 86.60254,-50"/>
		<path class="w5" d="M -86.60254,-50 Q 24.2,-41.91563 86.60254,50"/>
		<path class="w6" d="M 0,-100 Q 48.4,0 0,100"/>
		<path class="m" d="M 0,0 Q 47.35127,-17.985194 86.60254,-50"/>
		<path class="w1" d="M 86.60254,-50 Q 39.25127,-32.014806 0,0"/>
		<path class="m" d="M 0,0 Q 39.25127,32.014806 86.60254,50"/>
		<path class="w2" d="M 86.60254,50 Q 47.35127,17.985194 0,0"/>
		<path class="m" d="M 0,0 Q -8.1,50 0,100"/>
		<path class="w3" d="M 0,100 Q 8.1,50 0,0"/>
		<path class="m" d="M 0,0 Q -47.35127,17.985194 -86.60254,50"/>
		<path class="w4" d="M -86.60254,50 Q -39.25127,32.014806 0,0"/>
		<path class="m" d="M 0,0 Q -39.25127,-32.014806 -86.60254,-50"/>
		<path class="w5" d="M -86.60254,-50 Q -47.35127,-17.985194 0,0"/>
		<path class="m" d="M 0,0 Q 8.1,-50 0,-100"/>
		<path class="w6" d="M 0,-100 Q -8.1,-50 0,0"/>
		<path class="m m_" d="m70.682-41.11 7.491-2.253-4.246 6.57c-.02-1.979-1.336-3.718-3.245-4.316z"/>
		<path class="m m_" d="m70.943 40.658 5.697 5.36-7.813-.392c1.703-1.007 2.551-3.016 2.115-4.968z"/>
		<path class="m m_" d="m.26 81.767-1.793 7.614-3.567-6.96c1.724.97 3.888.7 5.36-.653z"/>
		<path class="m m_" d="m-70.682 41.11-7.491 2.253 4.246-6.57c.02 1.979 1.336 3.718 3.245 4.316z"/>
		<path class="m m_" d="m-70.943-40.658-5.697-5.36 7.813.392c-1.703 1.007-2.551 3.016-2.115 4.968z"/>
		<path class="m m_" d="m-.26-81.767 1.793-7.614 3.567 6.96c-1.724-.97-3.888-.7-5.36.653z"/>
		<path class="w1 w1_" d="m-68.368-50.662-7.7-1.377 6.758-3.94c-.877 1.774-.49 3.92.942 5.316z"/>
		<path class="w1 w1_" d="m16.429-92.134-6.123-4.87 7.82-.257c-1.615 1.145-2.293 3.217-1.697 5.126z"/>
		<path class="w1 w1_" d="M15.922-8.893 8.431-6.64l4.246-6.57c.02 1.981 1.336 3.72 3.245 4.318z"/>
		<path class="w1 w1_" d="m-68.3 50.84-7.61-1.812 6.97-3.55c-.975 1.721-.71 3.886.64 5.361z"/>
		<path class="w1 w1_" d="m97.758 35.401-5.717 5.34.895-7.771c.895 1.765 2.845 2.74 4.82 2.43z"/>
		<path class="w1 w1_" d="M16.64 92.318 9.058 94.24l4.532-6.377c-.067 1.977 1.171 3.772 3.051 4.454z"/>
		<path class="w2 w2_" d="m-68.368-50.662-7.7-1.377 6.758-3.94c-.877 1.774-.49 3.92.942 5.316z"/>
		<path class="w2 w2_" d="m16.429-92.134-6.123-4.87 7.82-.257c-1.615 1.145-2.293 3.217-1.697 5.126z"/>
		<path class="w2 w2_" d="M15.922-8.893 8.431-6.64l4.246-6.57c.02 1.981 1.336 3.72 3.245 4.318z"/>
		<path class="w2 w2_" d="m-68.3 50.84-7.61-1.812 6.97-3.55c-.975 1.721-.71 3.886.64 5.361z"/>
		<path class="w2 w2_" d="m97.758 35.401-5.717 5.34.895-7.771c.895 1.765 2.845 2.74 4.82 2.43z"/>
		<path class="w2 w2_" d="M16.64 92.318 9.058 94.24l4.532-6.377c-.067 1.977 1.171 3.772 3.051 4.454z"/>
		<path class="w3 w3_" d="m-68.368-50.662-7.7-1.377 6.758-3.94c-.877 1.774-.49 3.92.942 5.316z"/>
		<path class="w3 w3_" d="m16.429-92.134-6.123-4.87 7.82-.257c-1.615 1.145-2.293 3.217-1.697 5.126z"/>
		<path class="w3 w3_" d="M15.922-8.893 8.431-6.64l4.246-6.57c.02 1.981 1.336 3.72 3.245 4.318z"/>
		<path class="w3 w3_" d="m-68.3 50.84-7.61-1.812 6.97-3.55c-.975 1.721-.71 3.886.64 5.361z"/>
		<path class="w3 w3_" d="m97.758 35.401-5.717 5.34.895-7.771c.895 1.765 2.845 2.74 4.82 2.43z"/>
		<path class="w3 w3_" d="M16.64 92.318 9.058 94.24l4.532-6.377c-.067 1.977 1.171 3.772 3.051 4.454z"/>
		<path class="w4 w4_" d="m-68.368-50.662-7.7-1.377 6.758-3.94c-.877 1.774-.49 3.92.942 5.316z"/>
		<path class="w4 w4_" d="m16.429-92.134-6.123-4.87 7.82-.257c-1.615 1.145-2.293 3.217-1.697 5.126z"/>
		<path class="w4 w4_" d="M15.922-8.893 8.431-6.64l4.246-6.57c.02 1.981 1.336 3.72 3.245 4.318z"/>
		<path class="w4 w4_" d="m-68.3 50.84-7.61-1.812 6.97-3.55c-.975 1.721-.71 3.886.64 5.361z"/>
		<path class="w4 w4_" d="m97.758 35.401-5.717 5.34.895-7.771c.895 1.765 2.845 2.74 4.82 2.43z"/>
		<path class="w4 w4_" d="M16.64 92.318 9.058 94.24l4.532-6.377c-.067 1.977 1.171 3.772 3.051 4.454z"/>
		<path class="w5 w5_" d="m-68.368-50.662-7.7-1.377 6.758-3.94c-.877 1.774-.49 3.92.942 5.316z"/>
		<path class="w5 w5_" d="m16.429-92.134-6.123-4.87 7.82-.257c-1.615 1.145-2.293 3.217-1.697 5.126z"/>
		<path class="w5 w5_" d="M15.922-8.893 8.431-6.64l4.246-6.57c.02 1.981 1.336 3.72 3.245 4.318z"/>
		<path class="w5 w5_" d="m-68.3 50.84-7.61-1.812 6.97-3.55c-.975 1.721-.71 3.886.64 5.361z"/>
		<path class="w5 w5_" d="m97.758 35.401-5.717 5.34.895-7.771c.895 1.765 2.845 2.74 4.82 2.43z"/>
		<path class="w5 w5_" d="M16.64 92.318 9.058 94.24l4.532-6.377c-.067 1.977 1.171 3.772 3.051 4.454z"/>
		<path class="w6 w6_" d="m-68.368-50.662-7.7-1.377 6.758-3.94c-.877 1.774-.49 3.92.942 5.316z"/>
		<path class="w6 w6_" d="m16.429-92.134-6.123-4.87 7.82-.257c-1.615 1.145-2.293 3.217-1.697 5.126z"/>
		<path class="w6 w6_" d="M15.922-8.893 8.431-6.64l4.246-6.57c.02 1.981 1.336 3.72 3.245 4.318z"/>
		<path class="w6 w6_" d="m-68.3 50.84-7.61-1.812 6.97-3.55c-.975 1.721-.71 3.886.64 5.361z"/>
		<path class="w6 w6_" d="m97.758 35.401-5.717 5.34.895-7.771c.895 1.765 2.845 2.74 4.82 2.43z"/>
		<path class="w6 w6_" d="M16.64 92.318 9.058 94.24l4.532-6.377c-.067 1.977 1.171 3.772 3.051 4.454z"/>
		<g class="m F_m" fill="#666">
			<text class="F_m" transform="rotate(150.5)" x="-51.626" y="-5.515">m,w1</text>
			<g transform="rotate(60)"><text class="F_m" transform="rotate(150.5)" x="-51.626" y="-5.515">m,w2</text></g>
			<g transform="rotate(120)"><text class="F_m" transform="rotate(150.5)" x="-51.626" y="-5.515">m,w3</text></g>
			<g transform="rotate(180)"><text class="F_m" transform="rotate(150.5)" x="-51.626" y="-5.515">m,w4</text></g>
			<g transform="rotate(240)"><text class="F_m" transform="rotate(150.5)" x="-51.626" y="-5.515">m,w5</text></g>
			<g transform="rotate(300)"><text class="F_m" transform="rotate(150.5)" x="-51.626" y="-5.515">m,w6</text></g>
		</g>
		<g class="w1 F_w1" fill="#666">
			<text class="F_w1" transform="rotate(330)" x="37.408" y="-5.733">w1,m</text>
			<text class="F_w1" transform="rotate(87)" x="-7.349" y="-104.49">w1,w2</text>
			<text class="F_w1" transform="rotate(138)" x="24.516" y="-79.670">w1,w3</text>
			<text class="F_w1" transform="rotate(344)" x="-49.766" y="27.996">w1,w4</text>
			<text class="F_w1" transform="rotate(177)" x="15.646" y="57.778">w1,w5</text>
			<text class="F_w1" transform="rotate(208)" x="-2.920" y="91.764">w1,w6</text>
		</g>
		<g class="w2 F_w2" fill="#666" transform="rotate(60)">
			<text class="F_w2" transform="rotate(330)" x="37.408" y="-5.733">w2,m</text>
			<text class="F_w2" transform="rotate(87)" x="-7.349" y="-104.49">w2,w3</text>
			<text class="F_w2" transform="rotate(138)" x="24.516" y="-79.670">w2,w4</text>
			<text class="F_w2" transform="rotate(344)" x="-49.766" y="27.996">w2,w5</text>
			<text class="F_w2" transform="rotate(177)" x="15.646" y="57.778">w2,w6</text>
			<text class="F_w2" transform="rotate(208)" x="-2.920" y="91.764">w2,w1</text>
		</g>
		<g class="w3 F_w3" fill="#666" transform="rotate(120)">
			<text class="F_w3" transform="rotate(330)" x="37.408" y="-5.733">w3,m</text>
			<text class="F_w3" transform="rotate(87)" x="-7.349" y="-104.49">w3,w4</text>
			<text class="F_w3" transform="rotate(138)" x="24.516" y="-79.670">w3,w5</text>
			<text class="F_w3" transform="rotate(344)" x="-49.766" y="27.996">w3,w6</text>
			<text class="F_w3" transform="rotate(177)" x="15.646" y="57.778">w3,w1</text>
			<text class="F_w3" transform="rotate(208)" x="-2.920" y="91.764">w3,w2</text>
		</g>
		<g class="w4 F_w4" fill="#666" transform="rotate(180)">
			<text class="F_w4" transform="rotate(330)" x="37.408" y="-5.733">w4,m</text>
			<text class="F_w4" transform="rotate(87)" x="-7.349" y="-104.49">w4,w5</text>
			<text class="F_w4" transform="rotate(138)" x="24.516" y="-79.670">w4,w6</text>
			<text class="F_w4" transform="rotate(344)" x="-49.766" y="27.996">w4,w1</text>
			<text class="F_w4" transform="rotate(177)" x="15.646" y="57.778">w4,w2</text>
			<text class="F_w4" transform="rotate(208)" x="-2.920" y="91.764">w4,w3</text>
		</g>
		<g class="w5 F_w5" fill="#666" transform="rotate(240)">
			<text class="F_w5" transform="rotate(330)" x="37.408" y="-5.733">w5,m</text>
			<text class="F_w5" transform="rotate(87)" x="-7.349" y="-104.49">w5,w6</text>
			<text class="F_w5" transform="rotate(138)" x="24.516" y="-79.670">w5,w1</text>
			<text class="F_w5" transform="rotate(344)" x="-49.766" y="27.996">w5,w2</text>
			<text class="F_w5" transform="rotate(177)" x="15.646" y="57.778">w5,w3</text>
			<text class="F_w5" transform="rotate(208)" x="-2.920" y="91.764">w5,w4</text>
		</g>
		<g class="w6 F_w6" fill="#666" transform="rotate(300)">
			<text class="F_w6" transform="rotate(330)" x="37.408" y="-5.733">w6,m</text>
			<text class="F_w6" transform="rotate(87)" x="-7.349" y="-104.49">w6,w1</text>
			<text class="F_w6" transform="rotate(138)" x="24.516" y="-79.670">w6,w2</text>
			<text class="F_w6" transform="rotate(344)" x="-49.766" y="27.996">w6,w3</text>
			<text class="F_w6" transform="rotate(177)" x="15.646" y="57.778">w6,w4</text>
			<text class="F_w6" transform="rotate(208)" x="-2.920" y="91.764">w6,w5</text>
		</g>
		<g class="m">
			<a href="https://xamidi.github.io/pmGenerator/svg/meredith.svg" target="_blank" xlink:title="Open syntax tree of Meredith's axiom (CCCCCpqCNrNsrtCCtpCsp).">
				<circle r="11.5" class="B"/>
				<text x="-0.45em" y="0.3em" class="F">m</text>
				<circle r="11" stroke="none" fill="url(#S)"/>
			</a>
		</g>
		<g class="w1" transform="translate(86.603 -50)">
			<a href="https://xamidi.github.io/pmGenerator/svg/walsh1st.svg" target="_blank" xlink:title="Open syntax tree of Walsh's first axiom (CCpCCNpqrCsCCNtCrtCpt).">
				<circle r="11.5" class="B"/>
				<text x="-0.625em" y="0.3em" class="F">w1</text>
				<circle r="11" stroke="none" fill="url(#S)"/>
			</a>
		</g>
		<g class="w2" transform="translate(86.603 50)">
			<a href="https://xamidi.github.io/pmGenerator/svg/walsh2nd.svg" target="_blank" xlink:title="Open syntax tree of Walsh's second axiom (CpCCqCprCCNrCCNstqCsr).">
				<circle r="11.5" class="B"/>
				<text x="-0.675em" y="0.3em" class="F">w2</text>
				<circle r="11" stroke="none" fill="url(#S)"/>
			</a>
		</g>
		<g class="w3" transform="translate(0 100)">
			<a href="https://xamidi.github.io/pmGenerator/svg/walsh3rd.svg" target="_blank" xlink:title="Open syntax tree of Walsh's third axiom (CpCCNqCCNrsCptCCtqCrq).">
				<circle r="11.5" class="B"/>
				<text x="-0.675em" y="0.3em" class="F">w3</text>
				<circle r="11" stroke="none" fill="url(#S)"/>
			</a>
		</g>
		<g class="w4" transform="translate(-86.603 50)">
			<a href="https://xamidi.github.io/pmGenerator/svg/walsh4th.svg" target="_blank" xlink:title="Open syntax tree of Walsh's fourth axiom (CpCCNqCCNrsCtqCCrtCrq).">
				<circle r="11.5" class="B"/>
				<text x="-0.675em" y="0.3em" class="F">w4</text>
				<circle r="11" stroke="none" fill="url(#S)"/>
			</a>
		</g>
		<g class="w5" transform="translate(-86.603 -50)">
			<a href="https://xamidi.github.io/pmGenerator/svg/walsh5th.svg" target="_blank" xlink:title="Open syntax tree of Walsh's fifth axiom (CCpqCCCrCstCqCNsNpCps).">
				<circle r="11.5" class="B"/>
				<text x="-0.675em" y="0.3em" class="F">w5</text>
				<circle r="11" stroke="none" fill="url(#S)"/>
			</a>
		</g>
		<g class="w6" transform="translate(0 -100)">
			<a href="https://xamidi.github.io/pmGenerator/svg/walsh6th.svg" target="_blank" xlink:title="Open syntax tree of Walsh's sixth axiom (CCCpqCCCNrNsrtCCtpCsp).">
				<circle r="11.5" class="B"/>
				<text x="-0.675em" y="0.3em" class="F">w6</text>
				<circle r="11" stroke="none" fill="url(#S)"/>
			</a>
		</g>
	</g>
</svg>
